<svg width="64" height="64" viewBox="0 0 64 64" fill="none" xmlns="http://www.w3.org/2000/svg">
<path d="M62.2606 43.8059V51.7591H37.0644H26.4776H1.37598V43.8059H62.2606Z" fill="#C4D4DC"/>
<path d="M62.2606 1.37817H1.37598V43.8059H62.2606V1.37817Z" fill="white"/>
<path d="M42.1471 28.9514L36.423 34.1484H27.1071L21.3936 28.9514H26.4769H31.7703H37.0637H42.1471Z" fill="#C4D4DC"/>
<path d="M36.4234 34.1484L31.7707 38.5038L27.1074 34.1484H36.4234Z" fill="#C4D4DC"/>
<path d="M62.2605 53.0321H1.37586C0.630167 53.0321 0 52.4008 0 51.6539V1.37814C0 0.631209 0.630167 0 1.37586 0H62.2605C63.0062 0 63.6364 0.631209 63.6364 1.37814V51.7591C63.5313 52.4008 62.8907 53.0321 62.2605 53.0321ZM2.6467 50.381H60.8846V2.65108H2.6467V50.381Z" fill="#00416A"/>
<path d="M62.2605 45.0788H1.37586C0.630167 45.0788 0 44.4476 0 43.7007C0 42.9537 0.630167 42.3225 1.37586 42.3225H62.2605C63.0062 42.3225 63.6364 42.9537 63.6364 43.7007C63.6364 44.4476 62.8907 45.0788 62.2605 45.0788Z" fill="#00416A"/>
<path d="M42.3571 63.6363H21.1835C20.4378 63.6363 19.8076 63.0051 19.8076 62.2581C19.8076 61.5112 20.4378 60.88 21.1835 60.88H42.3571C43.1028 60.88 43.733 61.5112 43.733 62.2581C43.733 63.0051 43.0923 63.6363 42.3571 63.6363Z" fill="#00416A"/>
<path d="M26.4774 63.6363C25.7317 63.6363 25.1016 63.0051 25.1016 62.2582V51.6539C25.1016 50.907 25.7317 50.2758 26.4774 50.2758C27.2231 50.2758 27.8533 50.907 27.8533 51.6539V62.2582C27.8533 63.0051 27.2231 63.6363 26.4774 63.6363Z" fill="#00416A"/>
<path d="M37.0643 63.6363C36.3186 63.6363 35.6885 63.0051 35.6885 62.2582V51.6539C35.6885 50.907 36.3186 50.2758 37.0643 50.2758C37.81 50.2758 38.4402 50.907 38.4402 51.6539V62.2582C38.4402 63.0051 37.81 63.6363 37.0643 63.6363Z" fill="#00416A"/>
<path d="M31.7716 39.7766C31.4565 39.7766 31.1414 39.6714 30.9209 39.461L20.5441 29.9193C20.2291 29.7089 20.124 29.2775 20.124 28.9619V6.68026C20.124 5.93333 20.7542 5.30212 21.4999 5.30212C22.2456 5.30212 22.8758 5.93333 22.8758 6.68026V28.4254L31.8766 36.6942L40.8775 28.4254V6.68026C40.8775 5.93333 41.5077 5.30212 42.2534 5.30212C42.9991 5.30212 43.6292 5.93333 43.6292 6.68026V28.9514C43.6292 29.3722 43.5242 29.6983 43.2091 29.9087L32.8324 39.4505C32.4123 39.6609 32.0867 39.7661 31.7716 39.7661V39.7766Z" fill="#00416A"/>
<path d="M42.1479 30.2244H21.3944C20.6487 30.2244 20.0186 29.5827 20.0186 28.8463C20.0186 28.1099 20.6487 27.4681 21.3944 27.4681H42.1479C42.8936 27.4681 43.5238 28.0993 43.5238 28.8463C43.5238 29.5932 42.8936 30.2244 42.1479 30.2244Z" fill="#00416A"/>
<path d="M26.4774 30.2244C25.7317 30.2244 25.1016 29.5827 25.1016 28.8463V6.57516C25.1016 5.82823 25.7317 5.19702 26.4774 5.19702C27.2231 5.19702 27.8533 5.83875 27.8533 6.57516V28.8463C27.8533 29.6984 27.2231 30.2244 26.4774 30.2244Z" fill="#00416A"/>
<path d="M31.7714 30.2244C31.0257 30.2244 30.3955 29.5827 30.3955 28.8463V6.57516C30.3955 5.82823 31.0257 5.19702 31.7714 5.19702C32.5171 5.19702 33.1472 5.83875 33.1472 6.57516V28.8463C33.1472 29.6984 32.5171 30.2244 31.7714 30.2244Z" fill="#00416A"/>
<path d="M37.0643 30.2244C36.3186 30.2244 35.6885 29.5827 35.6885 28.8463V6.57516C35.6885 5.82823 36.3186 5.19702 37.0643 5.19702C37.81 5.19702 38.4402 5.83875 38.4402 6.57516V28.8463C38.4402 29.6984 37.81 30.2244 37.0643 30.2244Z" fill="#00416A"/>
<path d="M36.4238 35.4213H27.0028C26.2571 35.4213 25.627 34.7901 25.627 34.0432C25.627 33.2962 26.2571 32.665 27.0028 32.665H36.4238C37.1695 32.665 37.7997 33.2962 37.7997 34.0432C37.7997 34.8953 37.159 35.4213 36.4238 35.4213Z" fill="#00416A"/>
</svg>
