<svg width="64" height="64" viewBox="0 0 64 64" fill="none" xmlns="http://www.w3.org/2000/svg">
<path d="M62.2606 46.4569V51.7591H37.0644H26.4776H1.37598V46.4569H62.2606Z" fill="white"/>
<path d="M62.2606 1.37817H1.37598V46.457H62.2606V1.37817Z" fill="white"/>
<path d="M56.9672 21.5347V26.1005H52.1989C51.8838 27.8994 51.1381 29.4985 50.1824 30.9818L53.4698 34.485L50.2979 37.6621L46.9055 34.2641C45.4246 35.2215 43.8387 35.9579 42.0322 36.284V41.0601H37.474V36.284C35.678 35.9684 34.0816 35.2215 32.6007 34.2641L29.1033 37.6621L25.9315 34.485L29.3239 31.087C28.3681 29.6037 27.6329 28.0152 27.3073 26.2057H22.5391V21.6399H27.3073C27.6224 19.841 28.3681 18.2419 29.3239 16.7586L25.9315 13.2554L29.1033 10.0783L32.4957 13.4763C33.9766 12.519 35.5625 11.7826 37.369 11.4564V6.6803H41.9272V11.4564C43.7232 11.772 45.3196 12.519 46.8005 13.4763L50.2979 10.0783L53.4698 13.2554L50.0774 16.6534C51.0331 18.1367 51.7683 19.7253 52.0939 21.5347H56.9672ZM48.0713 23.8597C48.0713 19.1888 44.3638 15.4857 39.7006 15.4857C35.0374 15.4857 31.3404 19.1993 31.3404 23.8597C31.3404 28.5201 35.0479 32.2337 39.7006 32.2337C44.3533 32.2337 48.0713 28.5201 48.0713 23.8597Z" fill="#C4D4DC"/>
<path d="M17.046 11.7721H14.6094V14.2128H17.046V11.7721Z" fill="#00416A"/>
<path d="M13.0236 11.7721H10.5869V14.2128H13.0236V11.7721Z" fill="#00416A"/>
<path d="M62.2605 53.0321H37.0538C36.3081 53.0321 35.678 52.4008 35.678 51.6539C35.678 50.907 36.3081 50.2758 37.0538 50.2758H60.8741V2.65108H2.6467V50.381H26.4775C27.2232 50.381 27.8534 51.0122 27.8534 51.7591C27.8534 52.506 27.2232 53.1372 26.4775 53.1372H1.37586C0.630167 53.1372 0 52.506 0 51.7591V1.37814C0 0.631209 0.630167 0 1.37586 0H62.2605C63.0062 0 63.6364 0.631209 63.6364 1.37814V51.7591C63.5313 52.3903 62.8907 53.0321 62.2605 53.0321Z" fill="#00416A"/>
<path d="M37.0638 63.6363C36.3181 63.6363 35.6879 63.0051 35.6879 62.2582V52.9268H27.7478V62.2582C27.7478 63.0051 27.1072 63.6363 26.372 63.6363C25.6368 63.6363 24.9961 63.0051 24.9961 62.2582V51.6539C24.9961 50.907 25.6263 50.2758 26.372 50.2758H36.9588C37.7045 50.2758 38.3346 50.907 38.3346 51.6539V62.2582C38.4397 63.0051 37.8095 63.6363 37.0638 63.6363Z" fill="#00416A"/>
<path d="M41.0864 63.6363H22.5595C21.8138 63.6363 21.1836 63.0051 21.1836 62.2581C21.1836 61.5112 21.8243 60.88 22.5595 60.88H41.0864C41.8321 60.88 42.4622 61.5112 42.4622 62.2581C42.3572 63.0051 41.7165 63.6363 41.0864 63.6363Z" fill="#00416A"/>
<path d="M62.2605 47.7299H1.37586C0.630167 47.7299 0 47.0987 0 46.3518C0 45.6048 0.630167 44.9736 1.37586 44.9736H62.2605C63.0062 44.9736 63.6364 45.6048 63.6364 46.3518C63.6364 47.0987 62.8907 47.7299 62.2605 47.7299Z" fill="#00416A"/>
<path d="M39.7114 33.6223C34.313 33.6223 29.9648 29.2775 29.9648 23.8596C29.9648 18.4417 34.3025 14.0969 39.7114 14.0969C45.1204 14.0969 49.458 18.4417 49.458 23.8596C49.458 29.2775 45.1204 33.6223 39.7114 33.6223ZM39.7114 16.7585C35.7939 16.7585 32.622 19.9356 32.622 23.8596C32.622 27.7836 35.7939 30.9607 39.7114 30.9607C43.629 30.9607 46.8113 27.7836 46.8113 23.8596C46.8113 19.9356 43.6395 16.7585 39.7114 16.7585Z" fill="#00416A"/>
<path d="M42.0424 42.4277H37.4842C36.7385 42.4277 36.1083 41.7859 36.1083 41.0495V37.3359C34.9425 37.0203 33.7767 36.589 32.7159 35.9578L30.0692 38.6089C29.5441 39.1349 28.6934 39.1349 28.1682 38.6089L24.8809 35.3161C24.3557 34.79 24.3557 33.9379 24.8809 33.4119L27.5276 30.7608C26.8974 29.6983 26.4668 28.5306 26.1517 27.3628H22.4442C21.6985 27.3628 21.0684 26.7316 21.0684 25.9847V21.4189C21.0684 20.672 21.6985 20.0408 22.4442 20.0408H26.1517C26.4668 18.8731 26.8974 17.7053 27.5276 16.6428L24.8809 13.9917C24.3557 13.4657 24.3557 12.6136 24.8809 12.0876L28.1682 8.79476C28.6934 8.26876 29.5441 8.26876 30.0692 8.79476L32.7159 11.4458C33.7767 10.8146 34.9425 10.3833 36.1083 10.0677V6.35409C36.1083 5.60716 36.7385 4.97595 37.4842 4.97595H42.0424C42.7881 4.97595 43.4183 5.60716 43.4183 6.35409V10.0677C44.5841 10.3833 45.7499 10.8146 46.8107 11.4458L49.4574 8.79476C49.9825 8.26876 50.8332 8.26876 51.3584 8.79476L54.6458 12.0876C55.1709 12.6136 55.1709 13.4657 54.6458 13.9917L51.9991 16.6428C52.6292 17.7053 53.0598 18.8731 53.3749 20.0408H57.0824C57.8281 20.0408 58.4583 20.672 58.4583 21.4189V25.9847C58.4583 26.7316 57.8281 27.3628 57.0824 27.3628H53.3749C53.0598 28.5306 52.6292 29.6983 51.9991 30.7608L54.6458 33.4119C55.1709 33.9379 55.1709 34.79 54.6458 35.3161L51.3584 38.6089C50.8332 39.1349 49.9825 39.1349 49.4574 38.6089L46.8107 35.9578C45.7499 36.5995 44.5841 37.0203 43.4183 37.3359V41.0495C43.3133 41.7965 42.7881 42.4277 42.0424 42.4277ZM38.755 39.7766H40.656V36.2734C40.656 35.6317 41.0762 35.1057 41.7168 35.0005C43.3028 34.6848 44.7836 34.1483 46.0545 33.2015C46.5796 32.8859 47.3253 32.8859 47.7454 33.3067L50.1821 35.7474L51.5579 34.3692L49.1213 31.9286C48.7012 31.5078 48.5962 30.7608 49.0163 30.2348C49.972 28.9619 50.4972 27.4785 50.8122 25.89C50.9173 25.2483 51.4424 24.8275 52.0831 24.8275H55.5805V22.9233H52.0831C51.4424 22.9233 50.9173 22.5025 50.8122 21.8608C50.4972 20.2722 49.9615 18.7889 49.0163 17.516C48.7012 16.99 48.7012 16.243 49.1213 15.8222L51.5579 13.3815L50.2871 11.8982L47.8505 14.3389C47.4303 14.7597 46.6846 14.8649 46.1595 14.4441C44.8887 13.4868 43.4078 12.9607 41.8219 12.6451C41.1917 12.5399 40.7611 12.0139 40.7611 11.3722V7.97419H38.8601V11.4774C38.8601 12.1086 38.44 12.6451 37.7993 12.7503C36.2134 13.0659 34.7325 13.6025 33.4616 14.5493C32.9365 14.8649 32.1908 14.8649 31.7707 14.4441L29.124 11.8982L27.7481 13.2763L30.1848 15.717C30.6049 16.1378 30.7099 16.8848 30.2898 17.4108C29.3341 18.6837 28.8089 20.167 28.4938 21.7556C28.3888 22.3973 27.8637 22.8181 27.223 22.8181H23.8306V24.7223H27.328C27.9582 24.7223 28.4938 25.1431 28.5989 25.7848C28.9139 27.3733 29.4496 28.8567 30.3948 30.1296C30.7099 30.6556 30.7099 31.4026 30.2898 31.8234L27.7481 34.4744L29.124 35.8526L31.5606 33.4119C31.9808 32.9911 32.7264 32.8859 33.2516 33.3067C34.5224 34.264 36.0033 34.79 37.5892 35.1056C38.2194 35.2109 38.65 35.7369 38.65 36.3786L38.755 39.7766Z" fill="#00416A"/>
<path d="M9.63211 17.2846H7.83613C7.09043 17.2846 6.46027 16.6534 6.46027 15.9064V14.3179L6.04016 14.1075C5.62004 13.8971 5.29446 13.5815 5.18943 13.045C5.0844 12.6242 5.29446 12.0876 5.60954 11.8772L6.35524 11.246V9.86789C6.35524 9.12096 6.98541 8.48975 7.7311 8.48975H9.52708C10.2728 8.48975 10.9029 9.12096 10.9029 9.86789C10.9029 10.6148 10.2728 11.246 9.52708 11.246H9.10697V11.8772C9.10697 12.1928 9.00194 12.4032 8.89691 12.6242C9.00194 12.8346 9.10697 13.045 9.10697 13.3711V14.5388H9.52708C10.2728 14.5388 10.9029 15.17 10.9029 15.917C10.9029 16.6639 10.3778 17.2951 9.63211 17.2951V17.2846Z" fill="#00416A"/>
<path d="M20.334 17.2846H18.538C17.7923 17.2846 17.1621 16.6534 17.1621 15.9065C17.1621 15.1595 17.7923 14.5283 18.538 14.5283H18.9581V13.3606C18.9581 13.045 19.0631 12.8346 19.1681 12.6137C19.0631 12.4033 18.9581 12.0877 18.9581 11.8667V11.2355H18.538C17.7923 11.2355 17.1621 10.6043 17.1621 9.85739C17.1621 9.11046 17.7923 8.47925 18.538 8.47925H20.334C21.0796 8.47925 21.7098 9.11046 21.7098 9.85739V11.2355L22.4555 11.8667C22.7706 12.1823 22.9807 12.6137 22.8756 13.0345C22.7706 13.4553 22.4555 13.8866 22.0249 14.097L21.6048 14.3074V15.896C21.6048 16.6429 21.0796 17.2741 20.334 17.2741V17.2846Z" fill="#00416A"/>
</svg>
