<svg width="15" height="17" viewBox="0 0 15 17" fill="none" xmlns="http://www.w3.org/2000/svg">
<g clip-path="url(#clip0_179_880)">
<path d="M7.54683 7.62808C7.39619 7.62808 7.27441 7.5076 7.27441 7.35855V0.269526C7.27441 0.120479 7.39619 0 7.54683 0C7.69748 0 7.81925 0.120479 7.81925 0.269526V7.35855C7.81925 7.5076 7.69748 7.62808 7.54683 7.62808Z" fill="#00416A"/>
<path d="M7.52359 5.34583C7.45392 5.34583 7.38424 5.31975 7.33089 5.26696L4.95381 2.91575C4.8471 2.8108 4.8471 2.64002 4.95381 2.53444C5.05989 2.42887 5.23251 2.42887 5.33921 2.53444L7.52359 4.695L9.66089 2.5804C9.76697 2.47482 9.93958 2.47482 10.0463 2.5804C10.153 2.68535 10.153 2.85613 10.0463 2.96171L7.71629 5.26696C7.66294 5.31975 7.59326 5.34583 7.52359 5.34583Z" fill="#00416A"/>
<path d="M7.513 2.90767C7.44332 2.90767 7.37365 2.88158 7.32029 2.82879L6.1396 1.66064C6.03289 1.55569 6.03289 1.38491 6.1396 1.27933C6.24568 1.17376 6.4183 1.17376 6.52501 1.27933L7.513 2.25683L8.53425 1.24642C8.64033 1.14084 8.81295 1.14084 8.91966 1.24642C9.02637 1.35137 9.02637 1.52215 8.91966 1.62773L7.7057 2.82879C7.65234 2.88158 7.58267 2.90767 7.513 2.90767Z" fill="#00416A"/>
<path d="M6.52416 8.1591C6.47771 8.1591 6.43126 8.1473 6.38795 8.12308L0.182566 4.57826C0.0520059 4.50373 0.00743962 4.33916 0.0827629 4.20999C0.158086 4.08081 0.324425 4.03672 0.454985 4.11124L6.66037 7.65607C6.79093 7.73059 6.83549 7.89516 6.76017 8.02434C6.70995 8.11066 6.61831 8.1591 6.52416 8.1591Z" fill="#00416A"/>
<path d="M1.26797 7.89887C1.14745 7.89887 1.0376 7.81938 1.00496 7.6989C0.966045 7.55482 1.05204 7.40702 1.19766 7.36851L4.18109 6.57733L3.39899 3.68831C3.36007 3.54423 3.44606 3.39642 3.59169 3.35792C3.73669 3.3188 3.88608 3.4045 3.92562 3.54858L4.77866 6.6978C4.79749 6.76674 4.78745 6.84064 4.75167 6.90212C4.71589 6.9636 4.65626 7.00894 4.58596 7.02757L1.33952 7.88831C1.31567 7.89452 1.29245 7.89763 1.26859 7.89763L1.26797 7.89887Z" fill="#00416A"/>
<path d="M0.763083 6.255C0.642566 6.255 0.53272 6.17551 0.50008 6.05503C0.461163 5.91095 0.547157 5.76315 0.692782 5.72465L2.0417 5.36694L1.66822 3.98701C1.6293 3.84293 1.71529 3.69513 1.86092 3.65663C2.00592 3.6175 2.15594 3.7032 2.19485 3.84728L2.63926 5.48804C2.65809 5.55697 2.64805 5.63087 2.61227 5.69235C2.57586 5.75446 2.51686 5.79917 2.44656 5.8178L0.834013 6.24507C0.81016 6.25128 0.786936 6.25438 0.763083 6.25438V6.255Z" fill="#00416A"/>
<path d="M0.273121 12.8447C0.178967 12.8447 0.0873241 12.7963 0.0371086 12.7099C-0.0382147 12.5808 0.0063516 12.4162 0.136912 12.3417L6.34229 8.79685C6.47285 8.72233 6.63919 8.76642 6.71452 8.8956C6.78984 9.02477 6.74527 9.18934 6.61471 9.26386L0.408703 12.8087C0.36602 12.8335 0.318943 12.8447 0.272494 12.8447H0.273121Z" fill="#00416A"/>
<path d="M3.62182 13.6738C3.5986 13.6738 3.57475 13.6707 3.55089 13.6644C3.40527 13.6259 3.31928 13.4781 3.35819 13.3341L4.15725 10.3823L1.23722 9.60852C1.09159 9.57001 1.0056 9.42221 1.04451 9.27813C1.08343 9.13405 1.23282 9.04835 1.37845 9.08747L4.56148 9.93145C4.70711 9.96995 4.7931 10.1178 4.75418 10.2618L3.8842 13.4744C3.85156 13.5949 3.74171 13.6744 3.6212 13.6744L3.62182 13.6738Z" fill="#00416A"/>
<path d="M1.93076 13.2844C1.90753 13.2844 1.88368 13.2813 1.85983 13.2751C1.7142 13.2366 1.62821 13.0888 1.66713 12.9447L2.02868 11.6095L0.633944 11.2394C0.488319 11.2009 0.402325 11.0531 0.441242 10.909C0.480159 10.7649 0.62955 10.6792 0.775175 10.7183L2.43354 11.158C2.57917 11.1965 2.66516 11.3443 2.62624 11.4884L2.19439 13.0838C2.16175 13.2043 2.0519 13.2838 1.93139 13.2838L1.93076 13.2844Z" fill="#00416A"/>
<path d="M7.45333 17C7.30268 17 7.18091 16.8795 7.18091 16.7305V9.64147C7.18091 9.49243 7.30268 9.37195 7.45333 9.37195C7.60397 9.37195 7.72575 9.49243 7.72575 9.64147V16.7305C7.72575 16.8795 7.60397 17 7.45333 17Z" fill="#00416A"/>
<path d="M9.85359 14.5445C9.78391 14.5445 9.71424 14.5184 9.66089 14.4656L7.47651 12.3045L5.33921 14.4191C5.23313 14.5246 5.06052 14.5246 4.95381 14.4191C4.8471 14.3141 4.8471 14.1433 4.95381 14.0378L7.28381 11.7325C7.38989 11.6269 7.56251 11.6269 7.66921 11.7325L10.0463 14.0843C10.153 14.1893 10.153 14.3601 10.0463 14.4656C9.99294 14.5184 9.92326 14.5445 9.85359 14.5445Z" fill="#00416A"/>
<path d="M6.27322 15.8319C6.20355 15.8319 6.13387 15.8058 6.08052 15.753C5.97381 15.6481 5.97381 15.4773 6.08052 15.3717L7.29448 14.1706C7.39679 14.0694 7.57757 14.0694 7.67988 14.1706L8.86058 15.3388C8.96728 15.4438 8.96728 15.6145 8.86058 15.7201C8.7545 15.8257 8.58188 15.8257 8.47517 15.7201L7.48718 14.7426L6.46592 15.753C6.41257 15.8058 6.3429 15.8319 6.27322 15.8319Z" fill="#00416A"/>
<path d="M14.6804 12.9248C14.634 12.9248 14.5875 12.913 14.5442 12.8888L8.33882 9.344C8.20826 9.26948 8.16369 9.10491 8.23901 8.97573C8.31434 8.84656 8.48068 8.80247 8.61124 8.87699L14.8166 12.4218C14.9472 12.4963 14.9917 12.6609 14.9164 12.7901C14.8662 12.8764 14.7746 12.9248 14.6804 12.9248Z" fill="#00416A"/>
<path d="M11.338 13.6508C11.2175 13.6508 11.1076 13.5713 11.075 13.4508L10.222 10.3016C10.2031 10.2327 10.2132 10.1588 10.249 10.0973C10.2854 10.0352 10.3444 9.99047 10.4147 9.97184L13.6617 9.11109C13.8067 9.07197 13.9561 9.15767 13.9957 9.30175C14.0346 9.44583 13.9486 9.59363 13.803 9.63214L10.8195 10.4233L11.6016 13.3123C11.6406 13.4564 11.5546 13.6042 11.4089 13.6427C11.3851 13.6489 11.3619 13.652 11.338 13.652V13.6508Z" fill="#00416A"/>
<path d="M13.0678 13.3521C12.9473 13.3521 12.8375 13.2727 12.8048 13.1522L12.3604 11.5114C12.3215 11.3673 12.4075 11.2195 12.5531 11.181L14.1657 10.7538C14.3107 10.7153 14.4607 10.8003 14.4996 10.9444C14.5385 11.0885 14.4525 11.2363 14.3069 11.2748L12.958 11.6325L13.3315 13.0124C13.3704 13.1565 13.2844 13.3043 13.1388 13.3428C13.1149 13.349 13.0917 13.3521 13.0678 13.3521Z" fill="#00416A"/>
<path d="M8.52215 8.23918C8.42799 8.23918 8.33635 8.19074 8.28613 8.10441C8.21081 7.97524 8.25538 7.81067 8.38594 7.73615L14.5913 4.19132C14.7219 4.1168 14.8882 4.16089 14.9635 4.29007C15.0389 4.41924 14.9943 4.58381 14.8637 4.65833L8.65835 8.20316C8.61567 8.228 8.56859 8.23918 8.52215 8.23918Z" fill="#00416A"/>
<path d="M13.6919 7.92181C13.6686 7.92181 13.6448 7.9187 13.6209 7.91249L10.4379 7.06852C10.2923 7.03001 10.2063 6.88221 10.2452 6.73813L11.1152 3.52618C11.1541 3.3821 11.3035 3.2964 11.4491 3.33552C11.5947 3.37402 11.6807 3.52183 11.6418 3.66591L10.8428 6.61765L13.7628 7.39145C13.9084 7.42995 13.9944 7.57776 13.9555 7.72184C13.9229 7.84231 13.813 7.92181 13.6925 7.92181H13.6919Z" fill="#00416A"/>
<path d="M14.2957 6.28977C14.2725 6.28977 14.2486 6.28666 14.2248 6.28045L12.5664 5.84076C12.4967 5.82213 12.4371 5.77742 12.4007 5.71532C12.3643 5.65321 12.3549 5.57993 12.3737 5.511L12.8056 3.91558C12.8445 3.7715 12.9939 3.6858 13.1395 3.72492C13.2851 3.76343 13.3711 3.91123 13.3322 4.05531L12.9707 5.39052L14.3654 5.76003C14.511 5.79853 14.597 5.94634 14.5581 6.09042C14.5255 6.2109 14.4156 6.29039 14.2951 6.29039L14.2957 6.28977Z" fill="#00416A"/>
<path d="M6.46835 5.37812L5.50923 4.4441C5.42261 4.35964 5.29017 4.34225 5.18409 4.40125C5.07801 4.46025 5.02465 4.58135 5.0529 4.6981L5.37993 6.06001C5.39688 6.13081 5.4427 6.19229 5.5061 6.22955L6.14446 6.60527C6.18714 6.63074 6.23548 6.64316 6.28381 6.64316C6.33214 6.64316 6.37733 6.63136 6.41939 6.60714C6.50476 6.5587 6.55685 6.46865 6.55623 6.37115L6.54995 5.56754C6.54995 5.49612 6.52045 5.42781 6.46835 5.3775V5.37812Z" fill="#00416A"/>
<path d="M5.30333 8.47953C5.30333 8.38202 5.25061 8.2926 5.16524 8.24416L4.45846 7.84794C4.39569 7.81254 4.32099 7.80385 4.25132 7.82248L2.9545 8.17709C2.83713 8.20938 2.75615 8.31371 2.7549 8.43419C2.75364 8.55467 2.83273 8.66087 2.94948 8.69502L4.3053 9.09621C4.33104 9.10366 4.3574 9.10738 4.38314 9.10738C4.42958 9.10738 4.47541 9.09559 4.51621 9.07323L5.16399 8.71365C5.24998 8.66583 5.30271 8.57641 5.30333 8.4789V8.47953Z" fill="#00416A"/>
<path d="M6.38354 10.3724C6.29817 10.3234 6.19335 10.324 6.10861 10.373L5.40811 10.7804C5.34596 10.8165 5.30077 10.8761 5.28257 10.945L4.94487 12.2336C4.91411 12.3498 4.96558 12.4721 5.06978 12.5336C5.11309 12.5591 5.16079 12.5709 5.2085 12.5709C5.27629 12.5709 5.34345 12.546 5.39555 12.4976L6.42434 11.5362C6.47832 11.4859 6.50908 11.4164 6.50971 11.3437L6.51912 10.609C6.52038 10.5115 6.46828 10.4215 6.38354 10.3724Z" fill="#00416A"/>
<path d="M9.61991 10.9394C9.60296 10.8686 9.55714 10.8072 9.49374 10.7699L8.85538 10.3948C8.77127 10.3451 8.66581 10.3445 8.58045 10.3929C8.49508 10.4414 8.44298 10.5314 8.44361 10.6289L8.44989 11.4325C8.44989 11.5039 8.47939 11.5723 8.53149 11.6226L9.4906 12.5566C9.5427 12.6075 9.61175 12.6342 9.68205 12.6342C9.72787 12.6342 9.77369 12.623 9.81575 12.5994C9.92183 12.5404 9.97518 12.4193 9.94694 12.3026L9.61991 10.9407V10.9394Z" fill="#00416A"/>
<path d="M12.051 8.30439L10.6952 7.90321C10.6243 7.88209 10.5483 7.89078 10.4837 7.92618L9.83588 8.28576C9.74989 8.33358 9.69716 8.423 9.69653 8.52051C9.69653 8.61801 9.74926 8.70744 9.83463 8.75588L10.5414 9.15209C10.5828 9.17507 10.6293 9.18687 10.6757 9.18687C10.7002 9.18687 10.7247 9.18376 10.7485 9.17693L12.0454 8.82233C12.1627 8.79003 12.2437 8.6857 12.245 8.56522C12.2462 8.44474 12.1671 8.33855 12.0504 8.30439H12.051Z" fill="#00416A"/>
<path d="M8.61632 6.62765C8.65837 6.65187 8.70608 6.66429 8.75315 6.66429C8.80023 6.66429 8.84856 6.65187 8.89125 6.62703L9.59175 6.21963C9.65389 6.18361 9.69909 6.12399 9.71729 6.05506L10.055 4.76643C10.0857 4.6503 10.0343 4.52795 9.93008 4.46647C9.82525 4.40499 9.69281 4.4199 9.60431 4.50249L8.57552 5.46384C8.52216 5.51415 8.49078 5.5837 8.49015 5.65636L8.48074 6.39104C8.47948 6.48854 8.53158 6.57859 8.61632 6.62765Z" fill="#00416A"/>
</g>
<defs>
<clipPath id="clip0_179_880">
<rect width="15" height="17" fill="white"/>
</clipPath>
</defs>
</svg>
