<svg width="129" height="129" viewBox="0 0 129 129" fill="none" xmlns="http://www.w3.org/2000/svg">
<path d="M41.9468 19.2912L41.8866 19.1494C42.2093 18.9061 42.271 18.6214 41.7681 17.4356L39.3302 11.6872C38.8273 10.5015 38.5797 10.3479 38.1806 10.4108L38.1204 10.269L40.6338 9.20309C43.0311 8.18638 44.5451 8.85206 45.1683 10.3214C45.9445 12.1516 45.0175 13.7309 42.8909 14.6328L41.6536 15.1575L42.4899 17.1295C42.9928 18.3153 43.2404 18.4688 43.6395 18.406L43.6996 18.5478L41.9468 19.2912ZM42.8144 14.4523C44.4383 13.7636 45.1563 12.5163 44.4785 10.9181C43.7679 9.24252 42.244 8.73306 40.1303 9.62952L39.4452 9.95047L41.577 14.9771L42.8144 14.4523ZM47.5787 16.8738L47.5417 16.7243C47.8579 16.5451 48.137 16.2742 48.3235 14.9878L49.4221 7.30301C49.4532 7.07899 49.4027 6.93285 49.2605 6.76613L49.1352 6.60963L49.7543 6.13917L55.0405 13.3404C55.8019 14.3779 56.1344 14.4976 56.4297 14.5255L56.4667 14.675L54.7543 15.0986L54.7173 14.9491C55.0743 14.7598 55.0137 14.5729 54.2522 13.5354L52.9053 11.7053L48.8554 12.7073L48.5409 14.934C48.3994 15.8776 48.5238 16.3804 49.023 16.3579L49.06 16.5074L47.5787 16.8738ZM48.8899 12.4968L52.7767 11.5353L49.626 7.25258L48.8899 12.4968ZM62.1496 14.5665C59.1147 14.704 57.0425 12.8919 56.9089 9.94091C56.7752 6.98994 58.7583 4.67181 61.5834 4.54383C63.2337 4.46907 64.4752 4.95939 64.8349 5.16732L64.9562 6.6053L64.8455 6.63834C64.3403 5.69424 63.2025 4.70872 61.3145 4.79426C59.1047 4.89436 57.5381 6.50691 57.6292 9.13748C57.721 11.782 59.5661 14.4593 62.531 14.325C63.7478 14.2698 64.7625 13.4671 65.0805 12.752L64.9796 11.1449C64.9378 10.5302 64.8412 10.2542 64.2201 10.1563L64.2131 10.0024L65.6816 9.93589L65.8033 12.6211C65.2977 13.5269 63.8278 14.4904 62.1496 14.5665ZM74.6782 15.3222L68.049 14.3098L68.0723 14.1576C68.4746 14.1199 68.6766 13.91 68.871 12.6367L69.8137 6.46429C70.0081 5.19106 69.878 4.93042 69.5053 4.77436L69.5285 4.62213L75.7425 5.57112L75.657 7.24339L75.5282 7.25205C75.2641 6.10704 74.5663 5.57561 73.3208 5.38539L70.8296 5.00495L70.1787 9.26752L72.4483 9.61415C73.8877 9.83396 74.2407 9.56215 74.4297 9.067L74.5819 9.09025L74.3008 10.9309L74.1485 10.9077C74.116 10.3787 73.8602 10.0139 72.4209 9.79406L70.1512 9.44744L69.4896 13.7792C69.4347 14.139 69.5988 14.3624 69.9587 14.4173L72.2699 14.7703C73.5154 14.9605 74.2997 14.7404 74.9339 13.6476L75.0542 13.6943L74.6782 15.3222ZM82.3885 17.7125L82.4481 17.5704C82.8475 17.6317 83.0944 17.4772 83.5926 16.2894L86.6246 9.05943L85.7338 8.68583C84.5718 8.19854 84.0029 8.3243 83.2691 8.98815L83.1637 8.9136L83.7772 7.66793L90.3229 10.413L89.8643 11.7237L89.7373 11.7008C89.6965 10.712 89.3875 10.2181 88.2255 9.73081L87.3605 9.36805L84.3285 16.598C83.8303 17.7858 83.8932 18.0702 84.2168 18.3122L84.1573 18.4542L82.3885 17.7125ZM91.5846 22.9301C89.6156 21.593 88.3928 18.8333 90.3198 15.9958C91.9872 13.5404 94.7764 12.9469 97.2317 14.6143C99.1891 15.9435 100.396 18.7263 98.4692 21.5639C96.4951 24.4709 93.5303 24.2514 91.5846 22.9301ZM92.0351 22.9145C93.9809 24.2359 96.1093 23.7182 97.4464 21.7493C99.0509 19.3866 98.9122 16.0771 96.7464 14.6063C94.7891 13.2771 92.6676 13.8841 91.3699 15.7951C89.7811 18.1346 89.8577 21.4359 92.0351 22.9145ZM101.53 31.1858L101.648 31.0867C101.976 31.3235 102.266 31.2987 103.251 30.4693L109.249 25.4205L108.627 24.6815C107.816 23.7175 107.252 23.5697 106.296 23.8254L106.237 23.711L107.351 22.8827L111.922 28.313L110.916 29.2698L110.813 29.1914C111.228 28.2931 111.179 27.7126 110.367 26.7486L109.763 26.031L103.765 31.0798C102.78 31.9092 102.706 32.191 102.883 32.554L102.766 32.6532L101.53 31.1858ZM107.339 40.0224C106.195 37.9358 106.361 34.9219 109.369 33.2721C111.971 31.8445 114.725 32.5853 116.152 35.1874C117.29 37.2618 117.099 40.2891 114.091 41.9389C111.011 43.6291 108.471 42.0844 107.339 40.0224ZM107.748 40.2135C108.879 42.2756 111.01 42.7833 113.096 41.6385C115.6 40.2648 116.983 37.2547 115.724 34.9594C114.586 32.8851 112.42 32.4602 110.395 33.5713C107.916 34.9315 106.482 37.906 107.748 40.2135ZM110.715 46.2081L110.862 46.1629C111.071 46.5088 111.348 46.5995 112.579 46.2213L118.548 44.3875C119.779 44.0093 119.957 43.7788 119.936 43.3753L120.083 43.3301L120.885 45.9397C121.649 48.4289 120.831 49.8665 119.306 50.3352C117.405 50.919 115.93 49.8345 115.251 47.6264L114.857 46.3416L112.809 46.9707C111.578 47.3489 111.4 47.5794 111.421 47.9829L111.274 48.0281L110.715 46.2081ZM115.439 47.5688C115.957 49.255 117.124 50.0975 118.783 49.5877C120.523 49.0532 121.186 47.5898 120.512 45.3951L120.263 44.6806L115.044 46.2841L115.439 47.5688ZM114.005 65.4366L114.158 65.4489C114.225 65.8475 114.449 66.0339 115.733 66.1368L121.957 66.6355C123.24 66.7383 123.491 66.5899 123.62 66.207L123.774 66.2193L123.556 68.9405C123.348 71.5362 122.057 72.5704 120.466 72.443C118.484 72.2842 117.513 70.7317 117.698 68.4291L117.805 67.0894L115.67 66.9183C114.386 66.8154 114.135 66.9639 114.006 67.3468L113.853 67.3345L114.005 65.4366ZM117.893 68.4447C117.752 70.2031 118.526 71.4168 120.256 71.5554C122.07 71.7007 123.227 70.5856 123.411 68.2969L123.443 67.5411L118 67.105L117.893 68.4447ZM113.543 71.5488L113.692 71.5859C113.703 71.9492 113.812 72.3226 114.862 73.0885L121.144 77.6501C121.327 77.7822 121.48 77.8058 121.694 77.7579L121.891 77.7203L122.017 78.4875L113.181 79.7969C111.908 79.9855 111.647 80.2235 111.484 80.4716L111.334 80.4345L111.76 78.7226L111.909 78.7597C111.91 79.1638 112.103 79.1974 113.377 79.0089L115.624 78.673L116.63 74.6242L114.808 73.3059C114.04 72.7399 113.537 72.615 113.324 73.0669L113.175 73.0297L113.543 71.5488ZM116.8 74.753L115.834 78.6388L121.093 77.8539L116.8 74.753ZM108.773 85.5111C110.07 82.7639 112.641 81.7792 115.312 83.0404C117.983 84.3017 119.106 87.1384 117.898 89.6957C117.193 91.1895 116.179 92.0578 115.827 92.2787L114.499 91.7136L114.522 91.6004C115.593 91.5951 116.996 91.0499 117.803 89.3409C118.747 87.3406 118.054 85.2019 115.686 84.0528C113.305 82.8978 110.076 83.2774 108.809 85.9612C108.288 87.0626 108.524 88.3349 109.007 88.9503L110.475 89.6124C111.038 89.8627 111.327 89.9063 111.704 89.4031L111.843 89.4688L111.216 90.7981L108.785 89.6504C108.221 88.7801 108.056 87.0303 108.773 85.5111ZM102.236 96.2242L106.241 90.8457L106.365 90.9377C106.209 91.3106 106.3 91.5875 107.333 92.3568L112.341 96.086C113.374 96.8553 113.665 96.8627 113.978 96.6068L114.101 96.6988L110.347 101.741L108.91 100.88L108.963 100.762C110.098 101.067 110.895 100.7 111.647 99.6892L113.152 97.6681L109.694 95.0927L108.323 96.9342C107.453 98.102 107.527 98.5413 107.876 98.9405L107.784 99.0641L106.291 97.952L106.383 97.8284C106.865 98.048 107.307 97.9933 108.177 96.8255L109.548 94.984L106.033 92.3668C105.742 92.1494 105.467 92.1895 105.25 92.4815L103.853 94.3567C103.101 95.3673 102.927 96.1631 103.595 97.236L103.497 97.3203L102.236 96.2242ZM96.5163 101.923L96.6142 102.042C96.3739 102.367 96.3954 102.657 97.214 103.652L102.197 109.704L102.943 109.09C103.916 108.29 104.069 107.728 103.824 106.769L103.939 106.711L104.755 107.834L99.2755 112.345L98.3297 111.329L98.4092 111.227C99.3029 111.652 99.884 111.609 100.857 110.808L101.581 110.212L96.598 104.159C95.7793 103.164 95.4984 103.088 95.1334 103.261L95.0356 103.142L96.5163 101.923ZM87.6137 107.628C89.7142 106.509 92.7258 106.713 94.3385 109.74C95.734 112.359 94.9594 115.104 92.34 116.499C90.2518 117.612 87.2271 117.383 85.6144 114.356C83.9622 111.255 85.5379 108.734 87.6137 107.628ZM87.4175 108.034C85.3417 109.14 84.8079 111.264 85.9269 113.365C87.2698 115.885 90.2626 117.305 92.5732 116.074C94.6614 114.961 95.1128 112.801 94.0267 110.763C92.6971 108.267 89.7405 106.796 87.4175 108.034ZM75.6706 112.566L75.7031 112.717C75.3405 112.895 75.2265 113.163 75.498 114.422L77.1509 122.086L78.0952 121.883C79.3269 121.617 79.7213 121.188 79.943 120.224L80.0721 120.225L80.2822 121.597L73.3437 123.094L72.9694 121.756L73.0867 121.703C73.6861 122.49 74.2223 122.718 75.4539 122.452L76.3709 122.255L74.718 114.591C74.4464 113.332 74.232 113.134 73.8282 113.121L73.7957 112.971L75.6706 112.566ZM65.1431 113.568C67.5228 113.531 70.1096 115.087 70.1634 118.516C70.21 121.484 68.2686 123.573 65.3009 123.619C62.9352 123.656 60.3481 122.073 60.2942 118.643C60.239 115.13 62.7914 113.605 65.1431 113.568ZM64.7833 113.84C62.4316 113.877 60.9873 115.524 61.0247 117.904C61.0695 120.759 63.085 123.388 65.7027 123.347C68.0684 123.31 69.4557 121.594 69.4194 119.284C69.375 116.456 67.415 113.799 64.7833 113.84ZM58.0947 113.663L58.0658 113.814C57.6624 113.837 57.4528 114.039 57.2115 115.305L56.0419 121.438C55.8007 122.703 55.9211 122.969 56.2878 123.138L56.259 123.289L53.5773 122.778C51.0194 122.29 50.131 120.895 50.4299 119.327C50.8023 117.375 52.4509 116.577 54.72 117.01L56.0402 117.262L56.4414 115.158C56.6827 113.893 56.5622 113.627 56.1955 113.458L56.2244 113.306L58.0947 113.663ZM54.6833 117.203C52.9505 116.872 51.6602 117.51 51.335 119.215C50.9941 121.003 51.9775 122.273 54.2328 122.704L54.9807 122.818L56.0035 117.454L54.6833 117.203ZM36.345 105.613L36.2525 105.736C35.8803 105.579 35.603 105.668 34.8287 106.698L31.0754 111.688C30.3011 112.717 30.2923 113.008 30.5467 113.322L30.4541 113.445L28.2724 111.804C26.1914 110.239 26.0089 108.595 26.9683 107.319C28.1633 105.731 29.9945 105.742 31.8405 107.13L32.9146 107.938L34.2022 106.226C34.9764 105.197 34.9852 104.906 34.7309 104.592L34.8234 104.469L36.345 105.613ZM31.7227 107.287C30.313 106.226 28.8738 106.23 27.8302 107.617C26.7362 109.072 27.0588 110.646 28.8937 112.026L29.5147 112.458L32.7968 108.095L31.7227 107.287ZM31.4317 101.951L31.3209 102.058C31.0074 101.874 30.6332 101.768 29.4261 102.25L22.2237 105.146C22.0142 105.232 21.913 105.348 21.8399 105.555L21.7671 105.742L21.0499 105.441L24.6375 97.2603C25.1545 96.0817 25.0916 95.734 24.9679 95.4644L25.0788 95.3575L26.3028 96.6278L26.1919 96.7347C25.8493 96.5204 25.7179 96.6664 25.2009 97.845L24.291 99.9271L27.1857 102.931L29.2707 102.089C30.1584 101.739 30.5314 101.38 30.262 100.959L30.3729 100.852L31.4317 101.951ZM26.9863 103.007L24.2081 100.124L22.078 104.995L26.9863 103.007ZM22.1431 90.4889C23.7793 93.0487 23.2457 95.7491 20.7568 97.3401C18.2678 98.9311 15.2687 98.3724 13.7456 95.9896C12.8559 94.5976 12.66 93.2773 12.6602 92.8618L13.845 92.0379L13.9289 92.1172C13.3638 93.0268 13.0791 94.5048 14.097 96.0973C15.2883 97.9611 17.4681 98.5118 19.7008 97.1178C21.9453 95.7163 23.3417 92.78 21.7432 90.2793C21.0872 89.253 19.8847 88.7755 19.1064 88.8576L17.765 89.7483C17.2535 90.0918 17.0628 90.3134 17.2884 90.9003L17.1586 90.9833L16.3669 89.7447L18.6318 88.297C19.669 88.282 21.2383 89.0734 22.1431 90.4889ZM16.5487 79.2541L18.9728 85.5066L18.8292 85.5623C18.5961 85.2322 18.3135 85.1616 17.1126 85.6272L11.2908 87.8843C10.0899 88.3499 9.9287 88.5925 9.97903 88.9935L9.83544 89.0491L7.56317 83.1882L9.05579 82.4293L9.12744 82.5367C8.26617 83.3361 8.15291 84.2058 8.60837 85.3806L9.5193 87.7302L13.5397 86.1715L12.7098 84.0308C12.1834 82.6732 11.7719 82.5024 11.2484 82.5853L11.1928 82.4417L12.9288 81.7686L12.9845 81.9122C12.542 82.2039 12.3531 82.6074 12.8795 83.965L13.7094 86.1057L17.7951 84.5217C18.1345 84.3901 18.2464 84.1365 18.1148 83.7971L17.2697 81.6172C16.8142 80.4424 16.2327 79.8721 14.9692 79.8664L14.9498 79.7388L16.5487 79.2541ZM14.7643 71.3817L14.6115 71.4009C14.4654 71.0242 14.2082 70.8872 12.9303 71.048L5.15163 72.0266L5.2722 72.985C5.42947 74.2352 5.82225 74.6655 6.76367 74.9704L6.75162 75.0989L5.36597 75.1885L4.48002 68.1461L5.8447 67.8897L5.8882 68.0112C5.05163 68.5398 4.77767 69.054 4.93494 70.3041L5.05202 71.2348L12.8307 70.2562C14.1086 70.0955 14.3238 69.8991 14.3721 69.4979L14.5249 69.4787L14.7643 71.3817ZM14.6962 60.807C14.5207 63.1806 12.7401 65.6179 9.31947 65.3649C6.35955 65.146 4.45273 63.0257 4.67161 60.0657C4.8461 57.7062 6.65461 55.2709 10.0753 55.5239C13.5797 55.783 14.8697 58.4614 14.6962 60.807ZM14.4578 60.4244C14.6313 58.0788 13.1201 56.4931 10.7466 56.3175C7.89835 56.1069 5.10001 57.8794 4.90695 60.4902C4.73246 62.8498 6.31757 64.3849 8.62128 64.5552C11.4416 64.7638 14.2637 63.0492 14.4578 60.4244ZM16.8765 48.0642L16.7317 48.0119C16.7726 47.61 16.6058 47.3711 15.3943 46.9339L8.01987 44.2723L7.69192 45.1809C7.26417 46.3661 7.41862 46.9279 8.11882 47.6271L8.04971 47.7361L6.77454 47.1866L9.18422 40.5101L10.5164 40.9017L10.5 41.0297C9.51461 41.1206 9.03697 41.4542 8.60922 42.6394L8.29078 43.5217L15.6652 46.1833C16.8767 46.6205 17.1576 46.5433 17.3828 46.2079L17.5277 46.2601L16.8765 48.0642ZM21.6361 38.6252C20.3942 40.6554 17.6958 42.0081 14.7698 40.2183C12.238 38.6695 11.5125 35.9117 13.0612 33.3798C14.2958 31.3615 17.0181 30.0234 19.9441 31.8132C22.9417 33.6469 22.8635 36.6188 21.6361 38.6252ZM21.5992 38.1758C22.8265 36.1695 22.2082 34.068 20.1779 32.8261C17.7416 31.3358 14.4424 31.6317 13.0763 33.865C11.8416 35.8833 12.5489 37.9735 14.5194 39.1789C16.9319 40.6546 20.2257 40.4211 21.5992 38.1758ZM25.3245 32.6191L25.2116 32.5144C25.4065 32.1604 25.3463 31.8753 24.4022 30.9992L19.8256 26.7516C18.8815 25.8754 18.5928 25.8367 18.2543 26.0573L18.1414 25.9526L19.9985 23.9516C21.7699 22.0429 23.4238 22.0308 24.5937 23.1165C26.0508 24.4688 25.8512 26.2891 24.2798 27.9823L23.3655 28.9674L24.9356 30.4245C25.8796 31.3007 26.1684 31.3395 26.5068 31.1188L26.6197 31.2236L25.3245 32.6191ZM24.1361 27.849C25.3361 26.556 25.4809 25.1241 24.2084 23.9431C22.8744 22.7051 21.2755 22.8638 19.7136 24.5467L19.2199 25.1198L23.2219 28.8341L24.1361 27.849Z" fill="#35424D"/>
<path d="M65.0815 45.4944L71.4458 51.8586L72.1528 51.1516L65.0815 44.0803L65.0103 44.1516H64.0815V84.1516H65.0815V45.4944Z" fill="#35424D"/>
</svg>
