<svg width="120" height="120" viewBox="0 0 120 120" fill="none" xmlns="http://www.w3.org/2000/svg">
<path d="M37.6396 14.7824L37.5795 14.6406C37.9021 14.3973 37.9639 14.1126 37.461 12.9268L35.0231 7.17844C34.5202 5.99267 34.2726 5.83916 33.8734 5.90199L33.8133 5.76021L36.3266 4.69431C38.7239 3.6776 40.238 4.34327 40.8612 5.81259C41.6374 7.6428 40.7104 9.22207 38.5838 10.124L37.3464 10.6487L38.1828 12.6207C38.6856 13.8065 38.9332 13.96 39.3324 13.8972L39.3925 14.039L37.6396 14.7824ZM38.5072 9.94355C40.1312 9.25481 40.8492 8.00748 40.1714 6.40927C39.4608 4.73373 37.9369 4.22427 35.8232 5.12073L35.1381 5.44168L37.2699 10.4683L38.5072 9.94355ZM43.2715 12.365L43.2345 12.2155C43.5508 12.0364 43.8299 11.7654 44.0164 10.479L45.115 2.79422C45.1461 2.5702 45.0955 2.42407 44.9533 2.25734L44.8281 2.10084L45.4472 1.63038L50.7333 8.83164C51.4948 9.86914 51.8272 9.9888 52.1226 10.0167L52.1596 10.1662L50.4472 10.5898L50.4102 10.4403C50.7672 10.251 50.7065 10.0641 49.9451 9.02665L48.5982 7.19656L44.5483 8.19848L44.2338 10.4252C44.0923 11.3688 44.2167 11.8716 44.7159 11.8491L44.7529 11.9986L43.2715 12.365ZM44.5827 7.98805L48.4696 7.02647L45.3189 2.74379L44.5827 7.98805ZM57.8424 10.0577C54.8075 10.1952 52.7354 8.38309 52.6017 5.43212C52.468 2.48115 54.4512 0.163024 57.2763 0.0350404C58.9266 -0.0397223 60.168 0.450596 60.5278 0.658528L60.649 2.09652L60.5384 2.12956C60.0332 1.18545 58.8954 0.199934 57.0073 0.285468C54.7976 0.385574 53.231 1.99812 53.3221 4.6287C53.4139 7.27325 55.2589 9.9505 58.2239 9.81618C59.4406 9.76105 60.4554 8.95831 60.7733 8.24319L60.6725 6.63611C60.6306 6.02137 60.534 5.74546 59.913 5.64746L59.906 5.49362L61.3745 5.4271L61.4961 8.11234C60.9906 9.01815 59.5207 9.98166 57.8424 10.0577ZM70.371 10.8134L63.7419 9.80102L63.7651 9.64878C64.1674 9.61108 64.3694 9.40117 64.5639 8.12794L65.5065 1.9555C65.701 0.682266 65.5709 0.421631 65.1981 0.265574L65.2214 0.113339L71.4353 1.06234L71.3499 2.7346L71.2211 2.74326C70.957 1.59826 70.2592 1.06682 69.0136 0.8766L66.5225 0.496156L65.8715 4.75873L68.1412 5.10536C69.5805 5.32517 69.9336 5.05336 70.1225 4.55821L70.2748 4.58146L69.9937 6.42212L69.8414 6.39887C69.8089 5.86989 69.553 5.50509 68.1137 5.28527L65.8441 4.93865L65.1825 9.27042C65.1275 9.63025 65.2917 9.8536 65.6515 9.90855L67.9627 10.2615C69.2083 10.4517 69.9925 10.2316 70.6268 9.13884L70.7471 9.18554L70.371 10.8134ZM78.0814 13.2037L78.1409 13.0616C78.5403 13.1229 78.7873 12.9684 79.2854 11.7806L82.3175 4.55064L81.4267 4.17704C80.2647 3.68975 79.6958 3.81551 78.962 4.47936L78.8566 4.40481L79.4701 3.15915L86.0158 5.90424L85.5572 7.21488L85.4302 7.19197C85.3894 6.20326 85.0804 5.70932 83.9184 5.22202L83.0534 4.85926L80.0213 12.0892C79.5232 13.277 79.5861 13.5614 79.9097 13.8034L79.8501 13.9454L78.0814 13.2037ZM87.2774 18.4213C85.3085 17.0842 84.0857 14.3246 86.0126 11.487C87.68 9.03165 90.4693 8.43811 92.9246 10.1055C94.8819 11.4347 96.0891 14.2176 94.1621 17.0551C92.1879 19.9622 89.2232 19.7426 87.2774 18.4213ZM87.728 18.4057C89.6737 19.7271 91.8022 19.2094 93.1393 17.2405C94.7438 14.8778 94.6051 11.5683 92.4393 10.0975C90.482 8.76827 88.3605 9.3753 87.0628 11.2863C85.474 13.6258 85.5506 16.9271 87.728 18.4057ZM97.2234 26.677L97.3412 26.5779C97.6686 26.8147 97.9589 26.7899 98.9442 25.9605L104.942 20.9117L104.32 20.1727C103.509 19.2087 102.945 19.0609 101.989 19.3166L101.929 19.2022L103.044 18.3739L107.615 23.8042L106.609 24.761L106.506 24.6826C106.921 23.7843 106.872 23.2038 106.06 22.2398L105.456 21.5222L99.4581 26.571C98.4728 27.4004 98.3989 27.6822 98.5763 28.0452L98.4585 28.1444L97.2234 26.677ZM103.032 35.5136C101.887 33.427 102.054 30.4131 105.061 28.7633C107.664 27.3357 110.417 28.0765 111.845 30.6786C112.983 32.753 112.792 35.7803 109.784 37.4301C106.704 39.1203 104.163 37.5756 103.032 35.5136ZM103.44 35.7048C104.572 37.7668 106.703 38.2745 108.789 37.1297C111.293 35.756 112.676 32.7459 111.416 30.4506C110.278 28.3763 108.113 27.9514 106.088 29.0625C103.609 30.4227 102.174 33.3972 103.44 35.7048ZM106.408 41.6993L106.555 41.6541C106.764 42 107.041 42.0907 108.272 41.7125L114.241 39.8788C115.472 39.5005 115.65 39.27 115.628 38.8665L115.776 38.8213L116.577 41.4309C117.342 43.9201 116.524 45.3577 114.999 45.8264C113.098 46.4102 111.623 45.3257 110.944 43.1176L110.55 41.8328L108.502 42.4619C107.271 42.8401 107.093 43.0706 107.114 43.4741L106.967 43.5194L106.408 41.6993ZM111.132 43.06C111.65 44.7462 112.817 45.5887 114.476 45.0789C116.216 44.5444 116.879 43.081 116.205 40.8863L115.956 40.1718L110.737 41.7753L111.132 43.06ZM109.698 60.9278L109.851 60.9401C109.918 61.3387 110.142 61.5252 111.425 61.628L117.649 62.1267C118.933 62.2295 119.184 62.0811 119.313 61.6982L119.466 61.7105L119.248 64.4317C119.041 67.0274 117.75 68.0617 116.159 67.9342C114.177 67.7754 113.206 66.2229 113.391 63.9203L113.498 62.5806L111.363 62.4095C110.079 62.3067 109.828 62.4551 109.699 62.838L109.546 62.8257L109.698 60.9278ZM113.586 63.9359C113.445 65.6943 114.219 66.908 115.949 67.0466C117.763 67.192 118.92 66.0768 119.103 63.7881L119.136 63.0323L113.693 62.5962L113.586 63.9359ZM109.236 67.04L109.385 67.0771C109.396 67.4404 109.505 67.8138 110.555 68.5797L116.836 73.1413C117.02 73.2734 117.173 73.297 117.387 73.2492L117.584 73.2115L117.71 73.9787L108.874 75.2882C107.601 75.4767 107.339 75.7147 107.177 75.9628L107.027 75.9257L107.453 74.2138L107.602 74.2509C107.603 74.655 107.796 74.6887 109.069 74.5001L111.317 74.1642L112.323 70.1154L110.501 68.7971C109.733 68.2311 109.23 68.1062 109.017 68.5581L108.868 68.5209L109.236 67.04ZM112.493 70.2442L111.527 74.13L116.786 73.3451L112.493 70.2442ZM104.466 81.0023C105.763 78.2552 108.334 77.2704 111.005 78.5317C113.676 79.7929 114.799 82.6296 113.591 85.1869C112.886 86.6807 111.872 87.549 111.52 87.7699L110.192 87.2048L110.215 87.0916C111.285 87.0863 112.688 86.5412 113.495 84.8321C114.44 82.8318 113.747 80.6931 111.379 79.544C108.998 78.389 105.769 78.7686 104.501 81.4524C103.981 82.5538 104.217 83.8261 104.7 84.4415L106.168 85.1036C106.731 85.3539 107.02 85.3975 107.397 84.8943L107.536 84.96L106.909 86.2893L104.478 85.1416C103.914 84.2713 103.749 82.5215 104.466 81.0023ZM97.9287 91.7154L101.934 86.3369L102.057 86.4289C101.902 86.8018 101.992 87.0787 103.026 87.848L108.034 91.5773C109.067 92.3465 109.358 92.3539 109.671 92.0981L109.794 92.19L106.04 97.2317L104.603 96.3714L104.656 96.2536C105.791 96.5578 106.588 96.191 107.34 95.1804L108.845 93.1593L105.387 90.5839L104.016 92.4254C103.146 93.5932 103.22 94.0325 103.569 94.4318L103.477 94.5553L101.983 93.4432L102.075 93.3197C102.558 93.5392 103 93.4845 103.87 92.3167L105.241 90.4752L101.726 87.858C101.434 87.6406 101.16 87.6808 100.943 87.9727L99.5463 89.8479C98.7938 90.8585 98.6201 91.6543 99.2874 92.7272L99.1897 92.8115L97.9287 91.7154ZM92.2092 97.4143L92.3071 97.5332C92.0667 97.858 92.0883 98.1485 92.9069 99.1429L97.8899 105.196L98.6356 104.582C99.6084 103.781 99.7623 103.219 99.5171 102.26L99.6322 102.202L100.448 103.325L94.9684 107.837L94.0226 106.82L94.1021 106.718C94.9958 107.143 95.5768 107.1 96.5496 106.299L97.2738 105.703L92.2908 99.6501C91.4722 98.6557 91.1912 98.5787 90.8263 98.7522L90.7284 98.6333L92.2092 97.4143ZM83.3066 103.119C85.4071 102 88.4187 102.204 90.0314 105.231C91.4269 107.851 90.6523 110.595 88.0328 111.991C85.9447 113.103 82.9199 112.874 81.3072 109.847C79.655 106.746 81.2308 104.225 83.3066 103.119ZM83.1104 103.525C81.0346 104.631 80.5008 106.755 81.6198 108.856C82.9626 111.376 85.9555 112.796 88.2661 111.565C90.3542 110.453 90.8057 108.293 89.7196 106.254C88.3899 103.758 85.4333 102.287 83.1104 103.525ZM71.3635 108.058L71.3959 108.208C71.0334 108.387 70.9194 108.655 71.1909 109.914L72.8438 117.577L73.7881 117.374C75.0198 117.108 75.4142 116.679 75.6359 115.715L75.7649 115.716L75.975 117.088L69.0366 118.585L68.6623 117.248L68.7795 117.194C69.379 117.981 69.9151 118.209 71.1468 117.943L72.0637 117.746L70.4108 110.082C70.1393 108.823 69.9249 108.626 69.521 108.613L69.4886 108.462L71.3635 108.058ZM60.836 109.06C63.2157 109.022 65.8024 110.578 65.8563 114.007C65.9029 116.975 63.9615 119.064 60.9938 119.11C58.6281 119.147 56.0409 117.564 55.9871 114.134C55.9319 110.621 58.4843 109.096 60.836 109.06ZM60.4762 109.331C58.1245 109.368 56.6802 111.015 56.7175 113.395C56.7624 116.25 58.7779 118.879 61.3956 118.838C63.7613 118.801 65.1485 117.085 65.1123 114.775C65.0678 111.947 63.1079 109.29 60.4762 109.331ZM53.7876 109.154L53.7587 109.305C53.3553 109.328 53.1457 109.531 52.9044 110.796L51.7348 116.929C51.4935 118.194 51.614 118.46 51.9807 118.629L51.9518 118.781L49.2702 118.269C46.7122 117.782 45.8239 116.386 46.1228 114.819C46.4952 112.866 48.1437 112.069 50.4128 112.501L51.7331 112.753L52.1343 110.649C52.3756 109.384 52.2551 109.118 51.8884 108.949L51.9173 108.798L53.7876 109.154ZM50.3761 112.694C48.6434 112.363 47.3531 113.001 47.0279 114.706C46.687 116.494 47.6704 117.765 49.9257 118.195L50.6736 118.309L51.6963 112.946L50.3761 112.694ZM32.0379 101.104L31.9453 101.228C31.5732 101.07 31.2958 101.159 30.5216 102.189L26.7682 107.179C25.994 108.208 25.9852 108.499 26.2395 108.813L26.147 108.936L23.9653 107.295C21.8842 105.73 21.7017 104.086 22.6611 102.811C23.8561 101.222 25.6873 101.233 27.5334 102.621L28.6075 103.429L29.8951 101.718C30.6693 100.688 30.6781 100.397 30.4237 100.083L30.5163 99.96L32.0379 101.104ZM27.4156 102.778C26.0059 101.718 24.5666 101.721 23.5231 103.109C22.4291 104.563 22.7517 106.137 24.5866 107.517L25.2075 107.949L28.4896 103.586L27.4156 102.778ZM27.1246 97.4421L27.0137 97.5489C26.7003 97.3649 26.326 97.2589 25.119 97.7415L17.9166 100.638C17.7071 100.723 17.6059 100.84 17.5327 101.046L17.46 101.233L16.7427 100.933L20.3304 92.7515C20.8473 91.5729 20.7845 91.2252 20.6608 90.9556L20.7717 90.8487L21.9956 92.119L21.8847 92.2259C21.5422 92.0116 21.4107 92.1577 20.8938 93.3362L19.9838 95.4184L22.8786 98.4227L24.9636 97.5802C25.8513 97.2303 26.2243 96.8709 25.9549 96.4501L26.0658 96.3432L27.1246 97.4421ZM22.6792 98.4982L19.901 95.6148L17.7709 100.486L22.6792 98.4982ZM17.836 85.9801C19.4722 88.5399 18.9386 91.2404 16.4496 92.8313C13.9607 94.4223 10.9616 93.8636 9.43851 91.4808C8.54878 90.0888 8.35283 88.7685 8.35307 88.353L9.5379 87.5292L9.62181 87.6084C9.05671 88.518 8.77193 89.996 9.78985 91.5885C10.9812 93.4523 13.1609 94.003 15.3937 92.609C17.6382 91.2076 19.0346 88.2712 17.4361 85.7705C16.7801 84.7442 15.5776 84.2667 14.7993 84.3488L13.4578 85.2395C12.9463 85.5831 12.7557 85.8046 12.9813 86.3915L12.8515 86.4745L12.0598 85.2359L14.3246 83.7882C15.3619 83.7732 16.9311 84.5646 17.836 85.9801ZM12.2415 74.7453L14.6656 80.9978L14.522 81.0535C14.289 80.7234 14.0063 80.6528 12.8054 81.1184L6.98365 83.3755C5.78275 83.8411 5.62157 84.0837 5.6719 84.4847L5.52831 84.5403L3.25604 78.6794L4.74866 77.9205L4.82031 78.0279C3.95904 78.8273 3.84578 79.697 4.30124 80.8718L5.21217 83.2214L9.2326 81.6627L8.40264 79.522C7.87632 78.1644 7.46476 77.9937 6.9413 78.0765L6.88563 77.9329L8.62172 77.2598L8.67739 77.4034C8.2349 77.6951 8.04601 78.0986 8.57233 79.4562L9.40229 81.5969L13.488 80.0129C13.8274 79.8813 13.9393 79.6277 13.8077 79.2884L12.9625 77.1085C12.5071 75.9337 11.9256 75.3633 10.6621 75.3576L10.6426 75.23L12.2415 74.7453ZM10.4572 66.8729L10.3044 66.8921C10.1582 66.5154 9.90111 66.3785 8.62319 66.5392L0.844496 67.5178L0.96507 68.4762C1.12234 69.7264 1.51512 70.1567 2.45654 70.4616L2.44449 70.5901L1.05884 70.6798L0.172889 63.6373L1.53757 63.3809L1.58107 63.5024C0.744504 64.031 0.470545 64.5452 0.627814 65.7954L0.744892 66.726L8.52358 65.7475C9.80151 65.5867 10.0167 65.3903 10.065 64.9891L10.2178 64.9699L10.4572 66.8729ZM10.3891 56.2982C10.2136 58.6718 8.433 61.1091 5.01234 60.8561C2.05242 60.6373 0.145603 58.5169 0.364483 55.5569C0.538967 53.1974 2.34748 50.7621 5.76814 51.0151C9.27258 51.2742 10.5626 53.9526 10.3891 56.2982ZM10.1507 55.9156C10.3241 53.57 8.81296 51.9843 6.43944 51.8087C3.59122 51.5981 0.792886 53.3706 0.599817 55.9815C0.425333 58.341 2.01044 59.8761 4.31415 60.0464C7.13445 60.255 9.95658 58.5405 10.1507 55.9156ZM12.5694 43.5554L12.4246 43.5032C12.4655 43.1012 12.2986 42.8623 11.0871 42.4251L3.71274 39.7635L3.38479 40.6721C2.95704 41.8573 3.11149 42.4191 3.81169 43.1183L3.74258 43.2274L2.46741 42.6778L4.87709 36.0014L6.20929 36.3929L6.19285 36.5209C5.20748 36.6118 4.72984 36.9454 4.30209 38.1306L3.98365 39.0129L11.358 41.6745C12.5695 42.1117 12.8504 42.0345 13.0757 41.6991L13.2206 41.7513L12.5694 43.5554ZM17.329 34.1164C16.0871 36.1466 13.3887 37.4993 10.4627 35.7095C7.93084 34.1607 7.20533 31.4029 8.75409 28.871C9.98872 26.8527 12.711 25.5146 15.637 27.3045C18.6346 29.1381 18.5563 32.11 17.329 34.1164ZM17.292 33.6671C18.5194 31.6607 17.9011 29.5592 15.8708 28.3173C13.4345 26.827 10.1353 27.1229 8.76914 29.3562C7.53451 31.3745 8.24174 33.4647 10.2123 34.6701C12.6247 36.1458 15.9186 35.9123 17.292 33.6671ZM21.0174 28.1103L20.9045 28.0056C21.0993 27.6516 21.0392 27.3666 20.0951 26.4904L15.5184 22.2428C14.5744 21.3666 14.2856 21.3279 13.9472 21.5485L13.8343 21.4438L15.6914 19.4428C17.4628 17.5341 19.1167 17.522 20.2865 18.6077C21.7437 19.96 21.5441 21.7803 19.9727 23.4735L19.0584 24.4586L20.6284 25.9157C21.5725 26.7919 21.8612 26.8307 22.1997 26.61L22.3126 26.7148L21.0174 28.1103ZM19.829 23.3402C21.029 22.0472 21.1737 20.6153 19.9013 19.4344C18.5673 18.1963 16.9684 18.355 15.4065 20.0379L14.9127 20.611L18.9147 24.3253L19.829 23.3402Z" fill="#35424D"/>
</svg>
